<!--?xml version="1.0" standalone="no"?-->
              <svg id="sw-js-blob-svg" viewBox="0 0 100 100" xmlns="http://www.w3.org/2000/svg" version="1.1">
                    <defs> 
                        <linearGradient id="sw-gradient" x1="0" x2="1" y1="1" y2="0">
                            <stop id="stop1" stop-color="rgba(248, 117, 55, 1)" offset="0%"></stop>
                            <stop id="stop2" stop-color="rgba(251, 168, 31, 1)" offset="100%"></stop>
                        </linearGradient>
                    </defs>
                <path fill="url(#sw-gradient)" d="M22.7,-25.4C29.5,-21.4,35.2,-14.3,37.1,-6.1C39.1,2.1,37.3,11.3,32.3,17.3C27.3,23.4,18.9,26.2,10.2,30.5C1.4,34.8,-7.7,40.5,-14.6,38.6C-21.4,36.7,-25.9,27.2,-28.1,18.6C-30.3,10,-30.1,2.4,-29.3,-5.7C-28.6,-13.8,-27.3,-22.4,-22.3,-26.8C-17.4,-31.2,-8.7,-31.4,-0.4,-30.9C8,-30.5,15.9,-29.5,22.7,-25.4Z" width="100%" height="100%" transform="translate(50 50)" stroke-width="0" style="transition: all 0.3s ease 0s;"></path>
              </svg>