<!--?xml version="1.0" standalone="no"?-->
              <svg id="sw-js-blob-svg" viewBox="0 0 100 100" xmlns="http://www.w3.org/2000/svg" version="1.1">
                    <defs> 
                        <linearGradient id="sw-gradient" x1="0" x2="1" y1="1" y2="0">
                            <stop id="stop1" stop-color="rgba(201.567, 201.567, 201.567, 1)" offset="0%"></stop>
                            <stop id="stop2" stop-color="rgba(187.886, 185.821, 190.183, 1)" offset="100%"></stop>
                        </linearGradient>
                    </defs>
                <path fill="url(#sw-gradient)" d="M21.4,-33.5C24.9,-26.8,23,-16.8,24.4,-8.8C25.8,-0.7,30.5,5.4,30.5,11.3C30.4,17.1,25.6,22.8,19.7,24.6C13.8,26.3,6.9,24.1,0.8,23.1C-5.3,22,-10.7,22,-16.7,20.3C-22.8,18.6,-29.5,15.2,-30.6,10.3C-31.7,5.4,-27,-0.9,-24.8,-8.2C-22.6,-15.4,-22.8,-23.6,-19.1,-30.1C-15.4,-36.7,-7.7,-41.7,0.6,-42.6C8.9,-43.4,17.8,-40.1,21.4,-33.5Z" width="100%" height="100%" transform="translate(50 50)" stroke-width="0" style="transition: all 0.3s ease 0s;" stroke="url(#sw-gradient)"></path>
              </svg>